<svg xmlns="http://www.w3.org/2000/svg" fill="none" viewBox="0 0 100 100"><path fill="#000000" fill-rule="evenodd" d="M36.934 16.938c-3.833 1.394 -17.77 6.969 -21.254 10.104C6.62 35.405 0.348 55.265 0.697 65.718c0.348 4.878 2.09 9.408 4.181 13.59C3.136 83.836 1.045 89.062 0 93.94c0 0.697 1.045 0.697 1.045 0.349 1.046 -4.878 3.136 -10.453 5.227 -14.634C6.62 78.262 0.348 71.642 2.787 58.4c1.743 -9.756 7.666 -26.829 16.725 -32.056 1.742 -1.045 10.802 -5.226 12.544 -5.923 5.226 -2.439 5.575 -2.09 5.226 -2.787 0 -0.697 -0.348 -0.697 -0.348 -0.697Z" clip-rule="evenodd" stroke-width="1"></path><path fill="#000000" fill-rule="evenodd" d="M29.617 20.77c-0.349 -4.18 0.697 -18.118 3.833 -17.77 2.439 0 9.756 10.454 11.15 12.196 0.696 0.697 0.696 0 12.891 1.393 19.861 2.44 7.317 4.182 21.952 -7.317 3.484 -2.787 5.923 -0.348 7.665 3.833 2.788 7.317 1.045 13.937 0.349 21.254 -0.697 6.62 5.575 11.499 6.968 17.422 1.742 7.317 1.742 15.331 2.44 22.997 0.696 5.575 1.741 13.24 2.09 18.118 0 0.697 1.045 0.697 1.045 0 -0.348 -5.575 -1.045 -12.195 -1.742 -18.118 -0.697 -8.014 -0.697 -15.331 -2.439 -22.997 -1.394 -5.923 -7.317 -11.15 -6.62 -17.073 0.697 -8.014 2.439 -14.634 -0.349 -22.3 -2.09 -5.575 -5.923 -8.362 -10.801 -4.878 -17.422 14.286 3.484 7.317 -32.404 6.272 -1.742 -2.44 -9.06 -12.544 -12.195 -12.544 -4.878 0 -5.227 14.634 -4.879 19.512 0 0.697 1.046 0.697 1.046 0Z" clip-rule="evenodd" stroke-width="1"></path><path fill="#000000" fill-rule="evenodd" d="M33.45 30.875c-0.351 1.55 -0.697 3.485 -1.046 5.575 -0.348 0.697 0.697 1.046 1.046 0.349 1.393 -2.44 1.393 -3.833 1.045 -5.924 0 -0.72 -0.849 -0.638 -1.045 0Z" clip-rule="evenodd" stroke-width="1"></path><path fill="#000000" fill-rule="evenodd" d="M38.676 35.057c-0.59 0.81 -1.653 2.26 -2.439 3.833 -0.348 0.696 0.697 1.045 1.045 0.697 1.545 -1.545 2.22 -2.826 2.44 -3.485 0.348 -1.045 -0.697 -1.742 -1.046 -1.045Z" clip-rule="evenodd" stroke-width="1"></path><path fill="#000000" fill-rule="evenodd" d="M54.355 45.51c0.349 0 0.349 -0.697 0 -1.045 -7.317 -5.924 -9.756 -6.272 -14.634 1.742 -0.348 0.349 0 1.045 0.349 1.394 5.226 3.484 10.801 2.439 14.285 -2.09Zm-1.045 -0.348c-6.969 -5.227 -8.014 -4.181 -11.498 1.394 4.18 2.09 8.362 1.742 11.498 -1.394Z" clip-rule="evenodd" stroke-width="1"></path><path fill="#000000" fill-rule="evenodd" d="M24.739 35.056c-1.742 -1.394 -3.833 -1.045 -5.227 0.697 -3.833 4.181 -1.394 8.71 2.44 8.362 4.529 -1.045 5.226 -6.271 2.787 -9.059Zm0.348 4.878c-0.348 -0.348 0 -1.742 -1.045 -3.136 -1.046 -1.045 -2.44 -1.045 -3.833 0.697 -2.439 3.136 -0.348 5.575 1.742 5.227 2.44 -1.046 3.136 -2.788 3.136 -2.788Z" clip-rule="evenodd" stroke-width="1"></path><path fill="#000000" fill-rule="evenodd" d="M23.084 42c2.09 0.35 3.832 -3.483 1.045 -5.922 -1.742 0 -3.833 5.226 -1.045 5.923Z" clip-rule="evenodd" stroke-width="1"></path><path fill="#000000" fill-rule="evenodd" d="M17.025 62.055c-0.252 7.522 12.998 12.924 23.8 6.304 0.455 -0.28 0.639 -0.55 0.639 -0.899 -0.697 -1.045 -2.091 1.742 -9.06 1.742 -2.787 0 -5.575 -0.697 -8.362 -1.742 -2.788 -1.045 -4.667 -2.486 -5.364 -5.622 -0.697 -0.349 -1.653 -0.48 -1.653 0.217Z" clip-rule="evenodd" stroke-width="1"></path><path fill="#000000" fill-rule="evenodd" d="M18.815 66.066c0.697 -0.348 0 -1.394 -0.697 -0.697 -1.393 0.697 -5.226 1.394 -5.574 2.09 0.348 0.698 3.484 1.743 6.271 -1.393Z" clip-rule="evenodd" stroke-width="1"></path><path fill="#000000" fill-rule="evenodd" d="M29.965 59.447c-0.392 0.577 -0.848 1.477 -1.045 2.788 -0.349 0.697 0.697 1.045 1.045 0.348 0.6 -0.976 0.937 -1.683 1.046 -2.788 0.062 -0.63 -0.697 -0.696 -1.046 -0.348Z" clip-rule="evenodd" stroke-width="1"></path><path fill="#000000" fill-rule="evenodd" d="M32.404 64.326c-0.571 0.78 -1.211 1.657 -1.393 2.787 -0.349 0.697 0.696 1.045 1.045 0.348 0.71 -0.82 1.394 -2.356 1.394 -2.787 0 -0.697 -0.697 -1.045 -1.046 -0.349Z" clip-rule="evenodd" stroke-width="1"></path><path fill="#000000" fill-rule="evenodd" d="M25.784 62.583c-0.662 1.114 -1.247 1.883 -1.394 3.136 -0.348 0.697 0.697 1.046 1.046 0.349 1.045 -1.394 1.186 -2.17 1.393 -3.136 0 -0.697 -0.562 -0.832 -1.045 -0.349Z" clip-rule="evenodd" stroke-width="1"></path><path fill="#000000" fill-rule="evenodd" d="M31.707 54.917c5.227 -0.697 9.757 2.09 15.331 1.393 6.272 -0.697 9.408 -6.62 14.983 -7.665 4.53 -1.046 9.408 -1.046 13.24 0.348 6.97 2.09 12.544 8.362 14.286 11.847 2.44 5.226 -2.09 9.756 -0.697 10.453 0.349 0 0.697 0 0.697 -0.349 1.394 -3.484 2.788 -6.62 1.046 -10.8C88.85 55.961 83.275 49.69 75.61 47.25c-4.53 -1.394 -9.408 -1.742 -14.286 -0.348 -5.923 1.393 -9.407 6.968 -14.982 8.014 -5.227 0.696 -9.408 -1.743 -14.983 -1.046 -0.348 0 -0.348 1.046 0.348 1.046Z" clip-rule="evenodd" stroke-width="1"></path><path fill="#000000" fill-rule="evenodd" d="M12.195 37.147c0.697 0 1.046 1.394 1.046 2.44 0 3.832 -1.046 3.484 2.787 8.71 0 0.349 0.348 0.349 0.697 0 0.697 -0.348 -0.349 -1.394 -1.394 -3.833 -1.045 -3.136 0.349 -4.53 -0.348 -6.968 -1.046 -3.136 -3.833 -3.136 -5.924 -0.697 -1.393 2.09 -1.742 2.439 -1.393 2.787 1.045 1.046 2.439 -2.439 4.53 -2.439Z" clip-rule="evenodd" stroke-width="1"></path><path fill="#000000" fill-rule="evenodd" d="M46.465 46.555c-0.287 -1.72 0.573 -3.44 2.006 -4.3 1.434 -0.86 3.153 0.86 4.3 2.007 0.573 0.573 1.433 0.86 -0.287 2.293 -1.72 1.433 -6.306 2.006 -6.019 0Z" clip-rule="evenodd" stroke-width="1"></path><path fill="#000000" fill-rule="evenodd" d="M4.53 77.914c5.575 10.105 18.467 19.164 34.495 20.558 20.209 2.09 39.72 -8.363 45.296 -17.77 0.348 -0.697 -0.697 -1.046 -1.046 -0.697 -3.832 6.272 -12.195 10.801 -19.163 13.24 -26.133 9.408 -50.523 -2.09 -58.537 -16.028 -0.348 -0.348 -1.394 0.349 -1.045 0.697Z" clip-rule="evenodd" stroke-width="1"></path><path fill="#000000" fill-rule="evenodd" d="M16.725 74.777c1.742 1.742 3.484 2.788 6.62 2.788 0.697 0 0.697 -1.046 0 -1.046 -1.394 -0.348 -6.272 -2.787 -6.969 -2.439 0.348 0 0.349 0.349 0.349 0.697Z" clip-rule="evenodd" stroke-width="1"></path><path fill="#000000" fill-rule="evenodd" d="M18.765 53.309c-7.214 0 -3.607 14.136 4.057 5.183 0.902 -0.942 1.353 -1.885 0.902 -3.298 -0.902 -1.414 -3.607 -1.885 -4.96 -1.885Z" clip-rule="evenodd" stroke-width="1"></path><path fill="#000000" fill-rule="evenodd" d="M18.765 52.839c-3.156 -0.472 -6.312 3.298 -4.058 7.538 3.607 6.597 14.427 -4.24 7.664 -7.068 -1.352 -0.47 -2.705 -0.47 -3.606 -0.47Zm0 0.942c1.352 0.47 3.607 0.47 4.057 1.885 0.902 1.413 -3.156 5.183 -5.41 4.711 -1.803 -0.47 -3.156 -6.125 1.353 -6.596Z" clip-rule="evenodd" stroke-width="1"></path><path fill="#000000" fill-rule="evenodd" d="M81.185 12.408c-2.09 2.788 -7.666 8.014 -5.575 12.544 1.394 3.136 6.62 8.014 7.665 9.06 0.349 0.347 0.697 0.347 0.697 0 0.697 -0.35 0 -0.698 -3.484 -4.879 -4.53 -5.575 -4.181 -6.62 -2.09 -10.104 2.438 -4.53 4.529 -6.272 3.484 -6.62 -0.349 -0.35 -0.697 -0.35 -0.697 0Z" clip-rule="evenodd" stroke-width="1"></path><path fill="#000000" fill-rule="evenodd" d="M32.753 8.576c0.697 2.09 0.697 3.484 3.136 8.71 0.348 0.697 1.393 0.349 1.045 -0.348 -1.045 -4.181 -0.697 -5.226 -3.136 -9.06 -0.349 -0.348 -1.394 0 -1.045 0.698Z" clip-rule="evenodd" stroke-width="1"></path></svg>