<svg width="127" height="128" viewBox="0 0 127 128" fill="none" xmlns="http://www.w3.org/2000/svg">
<circle cx="63.4654" cy="63.9998" r="27.7022" fill="#212121" fill-opacity="0.16"/>
<path fill-rule="evenodd" clip-rule="evenodd" d="M126.931 55.6892C122.857 24.2693 95.9951 -0.000120897 63.4653 -0.000120897C30.9355 -0.000120897 4.07416 24.2693 9.39543e-06 55.6892H23.3687C27.2092 37.0627 43.7021 23.0587 63.4658 23.0587C83.2295 23.0587 99.7224 37.0627 103.563 55.6892H126.931ZM126.931 72.3105H103.563C99.7225 90.937 83.2296 104.941 63.4658 104.941C43.7021 104.941 27.2092 90.937 23.3687 72.3105H0C4.07412 103.73 30.9355 128 63.4653 128C95.9952 128 122.857 103.73 126.931 72.3105Z" fill="#212121" fill-opacity="0.16"/>
</svg>
